# xmcd CD database file
#
# Track frame offsets:
#	150
#	12600
#	23100
#	36019
#	48750
#	56250
#	63826
#	71322
#	82704
#	92526
#	104170
#
# Disc length: 1498 seconds
#
# Revision: 0
# Processed by: cddbd v1.5.1PL2 Copyright (c) Steve Scherf et al.
# Submitted via: CDex 1.51
#
DISCID=7c05d80b
DTITLE=Paradise Public Radio - It Seems Like Only Yesterday
DYEAR=1900
DGENRE=Jazz
TTITLE0=Sweet Sue
TTITLE1=Chinatown, My Chinatown
TTITLE2=I Can't Give You Anything But Love
TTITLE3=After You've Gone
TTITLE4=Cherokee
TTITLE5=Aleander's Ragtime Band
TTITLE6=I Don't Know Why
TTITLE7=The Donkey Serenade
TTITLE8=Hey Now, Lets Live
TTITLE9=Lady Be Good
TTITLE10=Struttin' With Some Barbeque
EXTD=
EXTT0=
EXTT1=
EXTT2=
EXTT3=
EXTT4=
EXTT5=
EXTT6=
EXTT7=
EXTT8=
EXTT9=
EXTT10=
PLAYORDER=
